<svg width="41" height="43" viewBox="0 0 41 43" fill="none" xmlns="http://www.w3.org/2000/svg">
<path d="M40.3592 21.2982C40.3592 32.6029 31.6286 41.7259 20.9086 41.7259C10.1886 41.7259 1.45801 32.6029 1.45801 21.2982C1.45801 9.99344 10.1886 0.870422 20.9086 0.870422C31.6286 0.870422 40.3592 9.99344 40.3592 21.2982Z" fill="#333333" stroke="#EEEEEE"/>
<path d="M21.6069 11.933L23.6718 17.9183L29.7368 18.1276C30.3752 18.1485 30.6445 18.9961 30.1358 19.4147L25.3476 23.3177L27.0335 29.4286C27.213 30.0774 26.5247 30.6006 25.996 30.2239L20.9784 26.6557L15.9609 30.2239C15.4322 30.6006 14.7439 30.0774 14.9234 29.4286L16.6093 23.3177L11.8012 19.4147C11.2924 19.0066 11.5618 18.1485 12.2002 18.1276L18.2652 17.9183L20.3301 11.933C20.5395 11.3052 21.3874 11.3052 21.6069 11.933Z" stroke="white" stroke-width="1.2" stroke-miterlimit="10" stroke-linecap="round" stroke-linejoin="round"/>
<rect x="9.43848" y="9.24152" width="22.9407" height="24.1133" stroke="#EEEEEE"/>
</svg>
