<svg height="137.321312" viewBox="0 0 46.354999 8.5989582" width="728.219081" xmlns="http://www.w3.org/2000/svg"><g fill="#d70f64" transform="matrix(.26458333 0 0 .26458333 -44.132501 -1.5875)"><g><path d="m203 16.3h2.5v-2.4c0-2.9 1.6-4.8 4.8-4.8l1.6.3v2.9l-1.7-.3c-1 0-1.4.6-1.4 1.6v2.7h3.2v2.9h-3.2v12h-3.2v-12h-2.6z"/><path d="m220.1 16c4.1 0 7.8 3.2 7.8 7.8s-3.6 7.8-7.8 7.8-7.8-3.2-7.8-7.8c0-4.7 3.7-7.8 7.8-7.8zm0 12.7c3 0 4.6-2.2 4.6-4.9s-1.6-4.9-4.6-4.9-4.6 2.2-4.6 4.9c0 2.6 1.6 4.9 4.6 4.9z"/><path d="m237 16c4.1 0 7.8 3.2 7.8 7.8s-3.6 7.8-7.8 7.8-7.8-3.2-7.8-7.8c.1-4.7 3.7-7.8 7.8-7.8zm0 12.7c3 0 4.6-2.2 4.6-4.9s-1.6-4.9-4.6-4.9-4.6 2.2-4.6 4.9c0 2.6 1.6 4.9 4.6 4.9z"/><path d="m261.4 31.2h-2.9l-.3-1.3-.2-.2-.2.2c-1 1-2.5 1.6-4.1 1.6-4.1 0-7.6-3.2-7.6-7.8s3.5-7.8 7.6-7.8c1.6 0 3.2.6 4.1 1.6l.2.2.2-.2v-8.3h3.2zm-7.5-12.4c-3 0-4.6 2.2-4.6 4.9s1.6 4.9 4.6 4.9c2.7 0 4.6-2.2 4.6-4.9 0-2.6-1.9-4.9-4.6-4.9z"/><path d="m264.6 16.3h2.9l.3 1.3.2.2.2-.2c1-1 2.5-1.6 4.1-1.6 4.1 0 7.6 3.2 7.6 7.8s-3.5 7.8-7.6 7.8c-1.6 0-3.2-.6-4.1-1.6l-.2-.2-.2.2v8h-3.1v-21.7zm7.4 12.4c3 0 4.6-2.2 4.6-4.9s-1.6-4.9-4.6-4.9c-2.7 0-4.6 2.2-4.6 4.9 0 2.6 1.9 4.9 4.6 4.9z"/><path d="m287.8 21.9h2.6v-.7c0-1.8-1.2-2.6-2.9-2.6-1.4 0-2.3.7-2.8 2l-2.8-.6c.6-2.5 2.8-4.1 5.7-4.1 4 0 6 2 6 5.9v9.3h-2.6l-.3-2c-1 1.5-2.6 2.2-4.7 2.2-2.7 0-4.6-1.6-4.6-4.6-.1-2.9 2.5-4.8 6.4-4.8zm-1.4 6.8c1 0 2-.3 2.7-1 .8-.7 1.2-1.6 1.2-2.8v-.3h-2.7c-1.9 0-3.1.9-3.1 2.3 0 1 .7 1.8 1.9 1.8z"/><path d="m296.4 16.3h2.9l.3 1.3.2.2.2-.2c.6-1 2.2-1.6 3.5-1.6 3.8 0 6 2.5 6 6v9.2h-3.2v-9.2c-.1-2-1.1-3.2-3.2-3.2-1.9 0-3.4 1.5-3.5 3.4v9h-3.2z"/><path d="m326.6 31.2h-2.9l-.3-1.3-.2-.2-.2.2c-1 1-2.5 1.6-4.1 1.6-4.1 0-7.6-3.2-7.6-7.8s3.5-7.8 7.6-7.8c1.6 0 3.2.6 4.1 1.6l.2.2.2-.2v-8.3h3.2zm-7.4-12.4c-3 0-4.6 2.2-4.6 4.9s1.6 4.9 4.6 4.9c2.7 0 4.6-2.2 4.6-4.9 0-2.6-1.9-4.9-4.6-4.9z"/><path d="m335.7 21.9h2.6v-.7c0-1.8-1.2-2.6-2.9-2.6-1.4 0-2.3.7-2.8 2l-2.8-.6c.6-2.5 2.8-4.1 5.7-4.1 4 0 6 2 6 5.9v9.3h-2.6l-.3-2c-1 1.5-2.6 2.2-4.7 2.2-2.7 0-4.6-1.6-4.6-4.6-.1-2.9 2.4-4.8 6.4-4.8zm-1.4 6.8c1 0 2-.3 2.7-1 .8-.7 1.2-1.6 1.2-2.8v-.3h-2.7c-1.9 0-3.1.9-3.1 2.3 0 1 .7 1.8 1.9 1.8z"/></g><g><path d="m180.9 26.5c1.8 0 3.3-1.3 3.3-2.9h-6.6c0 1.6 1.4 2.9 3.3 2.9z"/><path d="m192 12.7c.8-.6 1.2-1.6 1.2-2.7 0-2-1.6-3.5-3.6-3.5-1.3 0-2.4.6-3 1.6-1.8-.9-3.8-1.3-5.8-1.3-2.1 0-4.1.5-5.8 1.3-.6-1-1.7-1.6-3-1.6-2 0-3.6 1.6-3.6 3.5 0 1.1.5 2 1.2 2.7-1.5 2.2-2.3 4.7-2.3 7.5 0 7.4 6 13.5 13.5 13.5 7.4 0 13.5-6 13.5-13.5 0-2.8-.8-5.4-2.3-7.5zm-11.1 19.9c-6.8 0-12.4-5.6-12.4-12.4 0-2.6.8-5 2.1-7 1.2-1.8 2.9-3.3 4.9-4.2 1.6-.8 3.5-1.2 5.4-1.2s3.8.4 5.4 1.2c2 1 3.6 2.4 4.9 4.2 1.3 2 2.1 4.4 2.1 7 0 6.8-5.6 12.4-12.4 12.4z"/><path d="m180.9 22.8c.2.1 2.3-.7 2.3-1.7 0-.6-1.7-.7-2.3-.7s-2.3.1-2.3.7c-.1 1 2.1 1.8 2.3 1.7z"/><path d="m188.7 14.4c-1.2-.8-3.8-1.2-4.8.1 0 0-1.3 1.4 0 2.8s2.2 2.8 2.5 3.9c.3 1.2.8 1.6 1.7 1.6s2.7-1.4 3-3.7c.2-2.3-1.2-4-2.4-4.7zm-2.7 2.9c-.4 0-.7-.3-.7-.7s.3-.7.7-.7.7.3.7.7-.3.7-.7.7z"/><path d="m177.8 14.5c-1-1.3-3.6-.9-4.8-.1s-2.6 2.4-2.4 4.7 2 3.7 3 3.7c.9 0 1.4-.5 1.7-1.6.3-1.2 1.3-2.5 2.5-3.9 1.3-1.5 0-2.8 0-2.8zm-1.9 2.8c-.4 0-.7-.3-.7-.7s.3-.7.7-.7.7.3.7.7-.3.7-.7.7z"/></g></g></svg>