<?xml version="1.0" encoding="UTF-8" standalone="no"?>
<svg xmlns="http://www.w3.org/2000/svg" xmlns:xlink="http://www.w3.org/1999/xlink" width="32.583332" height="32.583332" viewBox="0 0 8.6210066 8.6210067">
  <defs>
    <clipPath id="a">
      <path d="M498.3125 696.3125H522V720h-23.6875zm0 0"/>
    </clipPath>
  </defs>
  <use xlink:href="#I" width="100%" height="100%" x="246.00549" y="634.86292" fill="#fff" transform="translate(-452.94639 -340.48276) scale(.35278)"/>
  <use xlink:href="#I" width="100%" height="100%" x="266.61771" y="642.86322" fill="#fff" transform="translate(-452.94639 -340.48276) scale(.35278)"/>
  <use xlink:href="#I" width="100%" height="100%" x="256.2402" y="650.86353" fill="#fff" transform="translate(-452.94639 -340.48276) scale(.35278)"/>
  <use xlink:href="#I" width="100%" height="100%" x="256.83801" y="658.86377" fill="#fff" transform="translate(-452.94639 -340.48276) scale(.35278)"/>
  <use xlink:href="#I" width="100%" height="100%" x="276.21469" y="666.86407" fill="#fff" transform="translate(-452.94639 -340.48276) scale(.35278)"/>
  <use xlink:href="#I" width="100%" height="100%" x="246.67751" y="674.86438" fill="#fff" transform="translate(-452.94639 -340.48276) scale(.35278)"/>
  <use xlink:href="#I" width="100%" height="100%" x="264.7627" y="682.86469" fill="#fff" transform="translate(-452.94639 -340.48276) scale(.35278)"/>
  <use xlink:href="#I" width="100%" height="100%" x="245.9481" y="690.86499" fill="#fff" transform="translate(-452.94639 -340.48276) scale(.35278)"/>
  <use xlink:href="#I" width="100%" height="100%" x="265.5817" y="712.53558" fill="#fff" transform="translate(-452.94639 -340.48276) scale(.35278)"/>
  <use xlink:href="#I" width="100%" height="100%" x="275.7674" y="720.53589" fill="#fff" transform="translate(-452.94639 -340.48276) scale(.35278)"/>
  <use xlink:href="#I" width="100%" height="100%" x="275.11359" y="728.53619" fill="#fff" transform="translate(-452.94639 -340.48276) scale(.35278)"/>
  <use xlink:href="#I" width="100%" height="100%" x="265.10571" y="736.5365" fill="#fff" transform="translate(-452.94639 -340.48276) scale(.35278)"/>
  <use xlink:href="#I" width="100%" height="100%" x="267.96591" y="744.5368" fill="#fff" transform="translate(-452.94639 -340.48276) scale(.35278)"/>
  <use xlink:href="#I" width="100%" height="100%" x="265.021" y="752.53711" fill="#fff" transform="translate(-452.94639 -340.48276) scale(.35278)"/>
  <use xlink:href="#I" width="100%" height="100%" x="272.5712" y="774.2063" fill="#fff" transform="translate(-452.94639 -340.48276) scale(.35278)"/>
  <use xlink:href="#I" width="100%" height="100%" x="274.95471" y="782.2066" fill="#fff" transform="translate(-452.94639 -340.48276) scale(.35278)"/>
  <use xlink:href="#I" width="100%" height="100%" x="244.9044" y="790.20691" fill="#fff" transform="translate(-452.94639 -340.48276) scale(.35278)"/>
  <use xlink:href="#I" width="100%" height="100%" x="264.03961" y="798.20721" fill="#fff" transform="translate(-452.94639 -340.48276) scale(.35278)"/>
  <use xlink:href="#I" width="100%" height="100%" x="534.9928" y="634.8678" fill="#fff" transform="translate(-452.94639 -340.48276) scale(.35278)"/>
  <use xlink:href="#I" width="100%" height="100%" x="542.07538" y="656.53839" fill="#fff" transform="translate(-452.94639 -340.48276) scale(.35278)"/>
  <use xlink:href="#I" width="100%" height="100%" x="540.99249" y="664.5387" fill="#fff" transform="translate(-452.94639 -340.48276) scale(.35278)"/>
  <use xlink:href="#I" width="100%" height="100%" x="526.41571" y="672.539" fill="#fff" transform="translate(-452.94639 -340.48276) scale(.35278)"/>
  <use xlink:href="#I" width="100%" height="100%" x="536.32019" y="680.53302" fill="#fff" transform="translate(-452.94639 -340.48276) scale(.35278)"/>
  <use xlink:href="#I" width="100%" height="100%" x="539.22522" y="688.53333" fill="#fff" transform="translate(-452.94639 -340.48276) scale(.35278)"/>
  <use xlink:href="#I" width="100%" height="100%" x="533.63501" y="696.53363" fill="#fff" transform="translate(-452.94639 -340.48276) scale(.35278)"/>
  <use xlink:href="#I" width="100%" height="100%" x="528.04688" y="718.20282" fill="#fff" transform="translate(-452.94639 -340.48276) scale(.35278)"/>
  <use xlink:href="#I" width="100%" height="100%" x="532.01239" y="726.20312" fill="#fff" transform="translate(-452.94639 -340.48276) scale(.35278)"/>
  <use xlink:href="#I" width="100%" height="100%" x="538.09052" y="734.20343" fill="#fff" transform="translate(-452.94639 -340.48276) scale(.35278)"/>
  <use xlink:href="#I" width="100%" height="100%" x="523.0069" y="742.20367" fill="#fff" transform="translate(-452.94639 -340.48276) scale(.35278)"/>
  <use xlink:href="#I" width="100%" height="100%" x="512.80017" y="750.20398" fill="#fff" transform="translate(-452.94639 -340.48276) scale(.35278)"/>
  <use xlink:href="#I" width="100%" height="100%" x="533.22479" y="758.20428" fill="#fff" transform="translate(-452.94639 -340.48276) scale(.35278)"/>
  <use xlink:href="#J" width="100%" height="100%" x="507.22699" y="778.87097" fill="#fff" transform="translate(-452.94639 -340.48276) scale(.35278)"/>
  <use xlink:href="#J" width="100%" height="100%" x="535.33948" y="785.87085" fill="#fff" transform="translate(-452.94639 -340.48276) scale(.35278)"/>
  <use xlink:href="#J" width="100%" height="100%" x="542.73389" y="792.87073" fill="#fff" transform="translate(-452.94639 -340.48276) scale(.35278)"/>
  <use xlink:href="#K" width="100%" height="100%" x="186.6324" y="601.995" fill="#fff" transform="translate(-452.94639 -340.48276) scale(.35278)"/>
  <path fill="#fff" d="M8.12491 4.28018c0 2.1208-1.72117 3.84197-3.84197 3.84197-2.12218 0-3.84335-1.72117-3.84335-3.84197C.43959 2.158 2.16076.43683 4.28294.43683c2.1208 0 3.84197 1.72117 3.84197 3.84335"/>
  <g clip-path="url(#a)" transform="translate(-175.66129 -245.51129) scale(.35278)">
    <path fill="#d41935" d="M518.32031 713.60547c-.95312 1.42578-2.16797 2.18359-3.52344 2.18359-.59375 0-1.21875-.14453-1.85937-.42969-.67969-.30078-1.27734-.85156-1.68359-1.55078-.40235-.69922-.5625-1.45312-.44922-2.13281.14062-.59375.45312-1.40234.8164-2.33984.94141-2.4375 2.23438-5.77735 1.11719-7.41016-.46875-.6875-1.31641-1.02344-2.58203-1.02734-1.26953.004-2.11328.33984-2.58594 1.02734-1.11328 1.63281.17578 4.97266 1.1211 7.41406.35937.9336.67578 1.74219.8125 2.34375.11718.67188-.043 1.42578-.44922 2.125-.40235.69922-1 1.25-1.67969 1.55078-.64063.28516-1.26953.42969-1.85938.42969-1.35546 0-2.57421-.75781-3.51953-2.17969l-.10937-.19531c.45312.22656 1.3164.60156 2.0625.60156.37109 0 .72265-.11328 1.07031-.34375 1.91406-1.27343 1.26172-2.80468-.0469-5.17187-.55469-1.00391-1.125-2.03906-1.37891-3.10938-.27344-1.14843-.52344-2.82421.47656-4.08984.46485-.59766 1.17969-1.05469 2.11719-1.36328.97266-.32422 2.22656-.49609 3.72656-.51953h.48438c1.5.0234 2.7539.19531 3.72656.51953.9375.30859 1.64844.76562 2.11719 1.36328 1 1.26563.75 2.94141.47656 4.08984-.25391 1.07032-.82422 2.10547-1.37891 3.10938-1.30859 2.36719-1.96484 3.89844-.0469 5.17187.34765.23047.69531.34375 1.07031.34375.74609 0 1.60547-.375 2.0625-.60156zm-8.16406-17.29297c-6.54297 0-11.84375 5.30078-11.84375 11.84375 0 6.53906 5.30078 11.84375 11.84375 11.84375S522 714.69531 522 708.15625c0-6.54297-5.30078-11.84375-11.84375-11.84375"/>
  </g>
</svg>