<svg id="Layer_1" data-name="Layer 1" xmlns="http://www.w3.org/2000/svg" width="284.26" height="284.26" viewBox="0 0 284.26 284.26"><title>Starbucks Coffee Company logo - Brandlogos.net</title><circle cx="142.13" cy="142.13" r="142.13" style="fill:#fff"/><path d="M398.29,303.32a83.54,83.54,0,0,0-28.59,0c-.72.13-1-.57-.45-1L384,291.13l14.73,11.2C399.28,302.75,399,303.45,398.29,303.32ZM373.69,373.7a1.64,1.64,0,0,0-1,.93c3,2.29,5,7.51,11.27,7.51s8.28-5.22,11.26-7.51a1.61,1.61,0,0,0-.95-.93,58.32,58.32,0,0,1-20.63,0ZM384,364.92c-1.73,0-2.11-.65-3.29-.65s-3.3.9-3.78,1.72a1.83,1.83,0,0,0,.49,1.12c2.52.38,3.66,1.78,6.58,1.78s4.06-1.4,6.58-1.78a1.87,1.87,0,0,0,.49-1.12c-.47-.82-2.65-1.71-3.78-1.72s-1.57.65-3.29.65Zm141.91,26.87q-.27,5.09-.9,10.1c-16.09,2.66-21.84-11.67-38.32-11a102.36,102.36,0,0,1,2.4,10.7c13.59,0,19.07,12.7,34.19,10.82q-1.19,5.83-2.86,11.49c-12,1.17-16.17-10.71-30-10.38q.17,3,.18,6l-.06,3.32,26.87,10.25q-2.11,5.73-4.69,11.22c-8.08-.45-10.86-10.81-23.15-10q-.55,4-1.4,7.87c10.67-.75,13,9.08,20.62,9.87q-2.92,5.33-6.28,10.38c-4.53-2.43-8.46-9.74-17-10.19q1.32-4.08,2.31-8.28a35.61,35.61,0,0,1-23.63-9.62c2.37-13.48-18.56-27.21-18.56-37.08,0-10.73,5.42-16.66,5.42-31.12,0-10.73-5.21-22.37-13.07-30.32a26.25,26.25,0,0,0-4.87-3.92c7.22,8.93,12.76,19.53,12.76,31.8,0,13.62-6.33,20.8-6.33,33.37s18.38,23.44,18.38,36.39c0,5.1-1.63,10.08-7,19.85,8.25,8.24,19,12.74,25.94,12.74,2.25,0,3.46-.69,4.26-2.45q1-2.29,2-4.63c7.47.29,10.89,7.08,15,9.79q-3.4,4.57-7.15,8.84c-2.77-3.07-6.49-8.23-11.95-9.67q-1.46,2.84-3.09,5.6c4.69,1.28,7.91,6,10.39,9.13q-4,4.16-8.38,8c-1.81-2.82-4.64-6.4-7.8-8.34q-1.76,2.37-3.64,4.63c2.69,1.82,5.06,5.11,6.61,7.78q-5,4-10.41,7.63c-1.77-14.43-21.47-24.33-16.16-41.07-1.74,3-3.82,6.64-3.82,11.09,0,12.12,12.91,21.74,13.94,33.79q-4,2.4-8.21,4.53c-.46-13.24-14.14-27.73-14.14-38.6,0-12.13,15.89-24.32,15.89-38.64s-18.33-24.25-18.33-36.83,7.8-19.81,7.8-35.92a43,43,0,0,0-14.27-31.38,23.52,23.52,0,0,0-4.86-3.37c8.17,9.8,12.91,18.69,12.91,32.19,0,15.15-8.93,23.57-8.93,38.41s18,23.09,18,36.93S425.7,459,425.7,473.2c0,12.93,14.76,25.83,15,41.17q-4.84,2.11-9.86,3.86c1.88-15.5-14.74-31.48-14.74-44.12,0-13.82,17.37-25.7,17.37-40.61s-17.66-21.84-17.66-37.15,10.83-23.77,10.83-40.67a41.21,41.21,0,0,0-16-32.37l-.6-.45c-.9-.66-1.63.14-1,.92,6.73,8.4,10.32,16.89,10.32,29.47,0,15.46-12.44,28-12.44,43,0,17.68,16.71,22.73,16.71,37.24s-17.92,26.1-17.92,41.5c0,14.28,17,30.12,14.05,46.61-3.4.88-6.85,1.65-10.35,2.27,3.18-20.52-13.45-35.26-13.45-48.69,0-14.53,18.56-27.49,18.56-41.69,0-13.4-13.32-17.77-15.07-31.48a3.21,3.21,0,0,0-3.81-2.91c-2.71.49-6.17,2.27-11.62,2.27s-8.92-1.79-11.63-2.27a3.21,3.21,0,0,0-3.81,2.91c-1.75,13.71-15.08,18.08-15.08,31.48,0,14.2,18.57,27.15,18.57,41.69,0,13.43-16.64,28.16-13.46,48.69-3.5-.63-6.95-1.4-10.35-2.27-2.91-16.48,14.06-32.33,14.06-46.61,0-15.4-17.93-27-17.93-41.5s16.72-19.56,16.72-37.24c0-15-12.45-27.54-12.45-43,0-12.57,3.6-21.07,10.33-29.47.63-.79-.1-1.59-1-.92l-.6.45a41.16,41.16,0,0,0-16,32.35c0,16.9,10.83,25.37,10.83,40.67s-17.66,22.23-17.66,37.15,17.37,26.78,17.37,40.61c0,12.65-16.61,28.63-14.73,44.12q-5-1.75-9.86-3.86c.22-15.34,15-28.25,15-41.17,0-14.21-16.74-25.87-16.74-39.7s18-22.09,18-36.93-8.93-23.25-8.93-38.41c0-13.49,4.73-22.38,12.9-32.19a23.24,23.24,0,0,0-4.86,3.37,43,43,0,0,0-14.27,31.38c0,16.12,7.8,23.35,7.8,35.92s-18.33,22.5-18.33,36.83,15.89,26.51,15.89,38.64c0,10.87-13.68,25.36-14.14,38.6q-4.19-2.14-8.21-4.53c1-12,13.94-21.67,13.94-33.79,0-4.44-2.07-8.13-3.82-11.09,5.31,16.75-14.39,26.64-16.16,41.07q-5.39-3.58-10.41-7.63c1.54-2.67,3.92-6,6.61-7.78-1.26-1.5-2.47-3-3.64-4.63-3.17,1.93-6,5.51-7.81,8.34q-4.34-3.83-8.37-8c2.49-3.12,5.7-7.85,10.39-9.13q-1.63-2.75-3.09-5.6c-5.45,1.44-9.18,6.6-11.95,9.67q-3.74-4.28-7.15-8.84c4.14-2.71,7.56-9.5,15-9.79q.94,2.33,2,4.63c.81,1.77,2,2.45,4.26,2.45,6.94,0,17.68-4.5,25.94-12.74-5.37-9.78-7-14.76-7-19.85,0-13,18.38-23.82,18.38-36.39s-6.33-19.75-6.33-33.37c0-12.27,5.54-22.86,12.76-31.8a26.25,26.25,0,0,0-4.87,3.92c-7.86,8-13.07,19.59-13.07,30.32,0,14.46,5.43,20.39,5.43,31.12,0,9.87-20.93,23.6-18.56,37.08A35.61,35.61,0,0,1,280.22,444q1,4.21,2.31,8.28c-8.58.45-12.51,7.77-17,10.19q-3.35-5.05-6.28-10.38c7.64-.8,9.94-10.62,20.62-9.87-.56-2.59-1-5.22-1.4-7.87-12.29-.82-15.07,9.54-23.15,10q-2.57-5.49-4.69-11.22l26.87-10.25-.06-3.32c0-2,.06-4,.17-6-13.84-.32-18,11.55-30,10.38-1.1-3.78-2.06-7.6-2.85-11.49,15.11,1.87,20.59-10.83,34.19-10.82a103.57,103.57,0,0,1,2.4-10.7c-16.48-.72-22.23,13.62-38.32,11q-.63-5-.9-10.1c18.7,2.09,25.71-13.28,42.74-11.4a99.81,99.81,0,0,1,5.58-11.8c-21.35-3.75-28.59,14.1-48.46,11.36a142.13,142.13,0,0,1,284.14,0c-19.87,2.74-27.12-15.1-48.46-11.36a101.33,101.33,0,0,1,5.58,11.8c17-1.89,24,13.49,42.73,11.4Zm-203-59.61c-10.46-4.28-23.13-3.29-34,3.66-1.68-10.07-7.14-19-14.92-24.41a1.28,1.28,0,0,0-2.09,1.21c1.64,21.27-10.79,39.74-26.08,56,15.76,4.74,29.18-15.56,49.62-8.48a107,107,0,0,1,27.43-28ZM384,319.32c-13.19,0-24.25,7.46-27.14,17.1-.22.74.08,1.22.93.83a19.43,19.43,0,0,1,8-1.58c5.38,0,10.12,2,12.93,5.41,1.24,4.09,1.35,10-.06,13.4-2.22-.5-3-2.21-5.18-2.21s-3.84,1.52-7.51,1.52-4.1-1.73-6.51-1.73c-2.84,0-3.36,2.92-3.36,6.22,0,14.7,13.51,34.93,27.88,34.93s27.88-20.23,27.88-34.93c0-3.3-.68-6.12-3.64-6.5a9,9,0,0,1-6.22,2c-3.67,0-4.69-1.52-6.85-1.52-2.61,0-2.35,5.5-5.45,5.81a26.09,26.09,0,0,1-.45-17c2.81-3.44,7.55-5.41,12.93-5.41a19.41,19.41,0,0,1,8,1.58c.86.38,1.16-.1.93-.83-2.89-9.64-13.94-17.1-27.13-17.1Zm21,21.09c-3.16,0-6.87,1-9.2,3.57a3.57,3.57,0,0,0,.1,2.46c5.74-2,10.8-2,13.24.69a4.41,4.41,0,0,0,1.72-3.49C410.86,341.73,408.92,340.41,405,340.41Zm-46.15,6.72c2.77-2.77,8.6-2.65,14.66-.42.27-3-5.13-6.31-10.52-6.31-3.92,0-5.86,1.32-5.86,3.24a4.41,4.41,0,0,0,1.72,3.49Zm90.93-49.76A47,47,0,0,0,423,307.64a105.11,105.11,0,0,1,12.06-24c-13.26,1.41-24.35,6.26-32.45,14.55l-6.33-16.6,14.06-12.42-18.83-1.33L384,250.34l-7.52,17.51-18.83,1.33,14.06,12.42-6.33,16.6c-8.1-8.29-19.19-13.14-32.44-14.55a105.67,105.67,0,0,1,12,24,46.88,46.88,0,0,0-26.78-10.28,125.77,125.77,0,0,1,15.89,25.81,1.73,1.73,0,0,0,2.53.84,106.76,106.76,0,0,1,94.72,0,1.72,1.72,0,0,0,2.53-.84A125.81,125.81,0,0,1,449.79,297.36Zm22.74,62.79c20.43-7.08,33.85,13.21,49.61,8.48-15.29-16.23-27.72-34.71-26.08-56a1.28,1.28,0,0,0-2.09-1.21c-7.78,5.4-13.25,14.34-14.92,24.41-10.82-6.95-23.49-7.94-34-3.66A107.06,107.06,0,0,1,472.53,360.15Z" transform="translate(-241.87 -241.87)" style="fill:#006341"/></svg>