<svg width="41" height="41" viewBox="0 0 41 41" fill="none" xmlns="http://www.w3.org/2000/svg">
<path d="M38.9504 29.4249C40.3055 26.6427 41.0066 23.5872 41 20.4922C40.9938 15.9749 39.5002 11.5855 36.75 8.0031C33.9999 4.42072 30.1465 1.84503 25.7862 0.674525H25.6877C22.4904 -0.167762 19.1368 -0.222046 15.914 0.516321C12.6912 1.25469 9.6953 2.7637 7.18286 4.91412L6.92667 5.15075C3.80702 7.90573 1.60021 11.5464 0.60018 15.5877C-0.399855 19.6291 -0.145658 23.8795 1.32892 27.7727C2.80349 31.6659 5.42845 35.0172 8.8542 37.3802C12.2799 39.7433 16.3439 41.0059 20.5047 41H20.9777C24.6991 40.908 28.3258 39.8064 31.4703 37.8129C34.6149 35.8194 37.1594 33.0089 38.8322 29.6812L38.9504 29.4249ZM37.8468 20.4922C37.8432 22.5581 37.4764 24.6072 36.763 26.5459L27.619 20.926C27.2434 20.6854 26.8195 20.5305 26.3774 20.4725L21.8842 19.8809C21.3071 19.8062 20.7205 19.8918 20.1888 20.1283C19.657 20.3648 19.2004 20.7431 18.8691 21.2218H17.1743L16.4254 19.664C16.2156 19.2338 15.9119 18.8562 15.5367 18.5593C15.1615 18.2624 14.7244 18.0536 14.2577 17.9484L12.957 17.6723L13.4694 16.5089C13.5843 16.2218 13.783 15.976 14.0397 15.8037C14.2963 15.6313 14.5989 15.5403 14.908 15.5427H18.0808C18.6116 15.5403 19.1334 15.4047 19.5982 15.1483L22.0025 13.8074C22.2146 13.6923 22.413 13.5534 22.5937 13.3933L27.8948 8.58186C28.3563 8.17702 28.687 7.64401 28.8449 7.0506C29.0028 6.45719 28.9808 5.8302 28.7817 5.24934C31.5232 6.73925 33.8123 8.94157 35.4077 11.6242C37.0031 14.3069 37.8458 17.3705 37.8468 20.4922ZM3.16265 20.4922C3.15815 17.7711 3.79982 15.088 5.03481 12.6637L7.08433 18.1653C7.27176 18.6581 7.57889 19.0964 7.978 19.4407C8.3771 19.785 8.85562 20.0243 9.37033 20.1372L10.4542 20.3739H10.4739L12.8388 20.8866C13.0728 20.9339 13.2927 21.0352 13.4808 21.1824C13.6689 21.3296 13.8202 21.5186 13.9226 21.7345L14.3365 22.6021C14.5972 23.1331 15.0011 23.5807 15.5025 23.8943C16.004 24.2079 16.583 24.375 17.1743 24.3768H17.4108L15.8933 27.7685C15.642 28.3322 15.5604 28.9569 15.6584 29.5663C15.7564 30.1757 16.0298 30.7433 16.4451 31.1996L19.6179 34.6307C19.7813 34.8135 19.9015 35.0307 19.9697 35.2662C20.038 35.5017 20.0524 35.7495 20.0121 35.9913L19.6574 37.8252C15.2114 37.6028 11.0208 35.6801 7.95108 32.4544C4.88139 29.2286 3.1672 24.9464 3.16265 20.4922Z" fill="#009688"/>
</svg>
