<svg width="41" height="43" viewBox="0 0 41 43" fill="none" xmlns="http://www.w3.org/2000/svg">
<path d="M40.3592 21.1027C40.3592 32.4075 31.6286 41.5305 20.9086 41.5305C10.1886 41.5305 1.45801 32.4075 1.45801 21.1027C1.45801 9.79798 10.1886 0.674957 20.9086 0.674957C31.6286 0.674957 40.3592 9.79798 40.3592 21.1027Z" fill="#333333" stroke="#EEEEEE"/>
<path d="M26.166 29.6412H15.8715C15.1533 29.6412 14.5747 29.0343 14.5747 28.2809V14.772C14.5747 14.0186 15.1533 13.4117 15.8715 13.4117H26.166C26.8842 13.4117 27.4628 14.0186 27.4628 14.772V28.2809C27.4628 29.0343 26.8842 29.6412 26.166 29.6412Z" stroke="white" stroke-width="1.2" stroke-miterlimit="10" stroke-linecap="round" stroke-linejoin="round"/>
<path d="M17.9863 19.4599H22.0563" stroke="white" stroke-width="1.2" stroke-miterlimit="10" stroke-linecap="round" stroke-linejoin="round"/>
<path d="M17.9863 23.5931H24.0513" stroke="white" stroke-width="1.2" stroke-miterlimit="10" stroke-linecap="round" stroke-linejoin="round"/>
<rect x="9.43848" y="9.04604" width="22.9407" height="24.1133" stroke="#EEEEEE"/>
</svg>
