<svg width="46" height="43" viewBox="0 0 46 43" fill="none" xmlns="http://www.w3.org/2000/svg">
<path d="M44.5911 21.7004C44.5911 32.9578 34.9607 42.1282 23.0246 42.1282C11.0884 42.1282 1.45801 32.9578 1.45801 21.7004C1.45801 10.4431 11.0884 1.27268 23.0246 1.27268C34.9607 1.27268 44.5911 10.4431 44.5911 21.7004Z" fill="#333333" stroke="#EEEEEE"/>
<path d="M23.5323 31.4528C28.9312 31.4528 33.3078 27.302 33.3078 22.1818C33.3078 17.0616 28.9312 12.9108 23.5323 12.9108C18.1335 12.9108 13.7568 17.0616 13.7568 22.1818C13.7568 27.302 18.1335 31.4528 23.5323 31.4528Z" stroke="white" stroke-width="1.2" stroke-miterlimit="10" stroke-linecap="round" stroke-linejoin="round"/>
<path d="M23.5322 17.1173V22.1818L26.8201 23.6677" stroke="white" stroke-width="1.2" stroke-miterlimit="10" stroke-linecap="round" stroke-linejoin="round"/>
<rect x="10.2847" y="9.6438" width="25.4799" height="24.1133" stroke="#EEEEEE"/>
</svg>
